<svg width="20" height="24" viewBox="0 0 20 24" fill="none" xmlns="http://www.w3.org/2000/svg">
<path d="M5.82626 5.86095C6.67348 5.84197 7.39435 6.12714 8.11731 6.40346C8.3516 6.49289 8.58464 6.58612 8.81558 6.68483C9.42516 6.94511 10.0243 6.93752 10.6393 6.67893C11.3836 6.36591 12.1237 6.01535 12.9257 5.8888C15.1227 5.54203 16.9644 6.18747 18.3818 7.95461C18.4982 8.0993 18.517 8.19169 18.3354 8.31993C17.3991 8.98055 16.6736 9.82932 16.3096 10.9295C15.7025 12.7658 15.9393 14.4891 17.1313 16.0377C17.6388 16.6971 18.286 17.1927 19.0374 17.5425C19.1851 17.6112 19.1186 17.6964 19.0914 17.7816C18.8107 18.6688 18.4325 19.5138 17.9589 20.3106C17.4074 21.2383 16.8209 22.1449 16.0594 22.9177C14.9453 24.0487 13.7261 24.263 12.2835 23.5965C11.7957 23.3712 11.3054 23.1527 10.7686 23.0708C9.81258 22.9253 8.898 23.0637 8.01982 23.4712C7.56421 23.6825 7.09897 23.8652 6.60068 23.9571C5.77605 24.1098 5.07903 23.8394 4.44979 23.3286C3.64064 22.6718 3.05742 21.8213 2.48675 20.9645C1.25587 19.1172 0.503205 17.081 0.155113 14.8877C0.0471708 14.2077 -0.0130759 13.5226 0.00240414 12.8346C0.0316908 11.5302 0.249248 10.2638 0.861757 9.09698C1.68095 7.53739 2.9114 6.47644 4.62132 6.02084C5.03217 5.91115 5.45222 5.84661 5.82626 5.86095Z" fill="white"/>
<path d="M9.51883 4.88143C9.54812 3.84873 9.97696 2.84894 10.6702 1.96474C11.4388 0.983936 12.4475 0.364658 13.6537 0.0748452C13.7143 0.0600804 13.7771 0.0550182 13.8382 0.0423626C14.3503 -0.0647878 14.2917 0.0204263 14.2892 0.423717C14.2813 1.68632 13.852 2.8017 13.0763 3.77955C12.3517 4.69286 11.4338 5.30539 10.2728 5.50619C10.2046 5.518 10.1347 5.5277 10.0657 5.52728C9.42218 5.52475 9.54268 5.64076 9.51883 4.88143Z" fill="white"/>
</svg>
