<svg width="24" height="24" viewBox="0 0 24 24" fill="none" xmlns="http://www.w3.org/2000/svg">
<path fill-rule="evenodd" clip-rule="evenodd" d="M20 8.00175C20 8.00117 20 8.00058 20 8C20 7.99994 20 7.99988 20 7.99982L21.875 5.97672C22.1807 5.64695 21.9058 5.11563 21.46 5.17458L19.1108 5.48528C18.3775 4.57926 17.2564 4 16 4C13.7909 4 12 5.79086 12 8C12 8.52744 12.1021 9.03104 12.2876 9.49212C9.29119 9.42205 6.08291 8.82913 4.46086 5.6154C4.26014 5.21773 3.68475 5.1947 3.55697 5.62143C2.38324 9.54144 4.44886 14.6347 8.99978 16C7.8645 17.11 4.94612 17.4114 2.55791 17.1927C2.09318 17.1502 1.80142 17.6796 2.16081 17.9773C4.16333 19.6361 6.94071 20 9.49986 20C15.9992 20 20.499 14.501 20 8.00175Z" fill="#7D7C7C"/>
</svg>
